<svg version="1" xmlns="http://www.w3.org/2000/svg" width="889.333" height="889.333" viewBox="0 0 667.000000 667.000000"><path d="M321.7 108.6c-.1.1-3.6.5-7.7.8-4.1.3-8.4.8-9.5 1-2.3.4-12.2 1.8-14.5 2.1-.9 0-2.1.4-2.8.9-.6.4-1.2.5-1.2.3 0-.3-3 .4-6.7 1.5-3.8 1-7.5 2-8.3 2.2-17.4 4.3-52.3 20.7-63.5 29.9-.5.4-5.2 4-10.3 7.9-8.4 6.3-28.1 25-34 32.1-17.9 21.8-32.3 47.5-40.6 72.7-2.5 7.4-4.7 14.6-4.9 16-.3 1.4-1 4.3-1.5 6.5-.6 2.2-1.3 5.6-1.6 7.5-.3 1.9-.8 4.6-1.1 5.9-1.4 7.3-1.9 15.8-1.8 36.1.1 12.4.3 24.1.6 26 3.5 24.8 9.8 46.6 19.1 66.6 2 4.2 3.6 8 3.6 8.5s.4.9.8.9 1.3 1.4 1.9 3c1.3 3.5 1.5 3.4-7.2 2-8.8-1.3-13.1-1.9-21.5-2.6-14.7-1.2-18.8-1.4-40.2-1.4l-21.8-.1-16.5 9.8c-9.1 5.4-19.3 11.5-22.8 13.5-3.4 2.1-6.6 3.9-7 4-.4.2-.3 1.7.2 3.3.5 1.7 2.6 8.4 4.6 15 2 6.6 4 13.1 4.5 14.5 3.1 9.4 4.1 14.2 3.4 16.2-.4 1.3-.9 2.7-1 3.3-.1.5-.6 2.1-1.2 3.5-.5 1.4-1.1 2.9-1.3 3.5-.2.5-.8 2.6-1.5 4.5-.8 2.2-.9 4.3-.3 5.8.5 1.3 1.1 3.5 1.4 5 1.4 7.3 1.6 8.7 2 9 .2.2 2.8-.3 5.8-1.2 2.9-.9 6.5-1.8 7.8-2 1.3-.3 2.4-.5 2.4-.6 0-.1 1.2-.3 2.6-.5 1.4-.2 4.5-.9 7-1.5 2.4-.7 5.5-1.4 6.9-1.6 1.4-.3 3.9-.7 5.5-1.1 3.2-.7 4.4-.9 8.5-1.6 1.4-.2 4.5-.8 7-1.2 2.5-.5 5.9-.9 7.5-1.1 1.7-.1 3-.3 3-.4 0-.1 1.1-.3 2.5-.5 1.4-.1 4.5-.5 7-.8 2.5-.4 6.8-.9 9.5-1.2 2.8-.3 7-.8 9.5-1 2.5-.3 8.1-.8 12.4-1.1 4.4-.3 8.3-.7 8.7-1 .4-.2 1.1 0 1.4.6.4.7 1.1.8 1.8.1.7-.5 11.3-.8 26.7-.6 23.5.4 28.8.6 40.8 2 2.3.3 6.3.7 9 1.1 2.6.3 5.8.7 7.2.9 1.4.3 5.2 1 8.5 1.6 9.1 1.6 10 1.7 10 1.9 0 .1.9.3 2 .5 4 .7 8.1 1.6 13.5 3.2 3 .9 5.5 1.5 5.5 1.4 0-.4 25 8.6 29.5 10.6 2.5 1.2 5.2 2.3 6.1 2.6 1 .3 2.6 3.4 3.9 7.4 4.8 14.3 13.3 22.4 28.5 27 4.8 1.5 22.6 1.3 29.4-.3 8.4-1.9 10.9-3.3 17.8-9.6 3.8-3.5 7.2-9.9 9.4-17.8.7-2.5 1.7-5 2.3-5.6 2-2 24.7-9.7 41.1-14 22.8-6 58.9-11.7 75.2-11.8 3.5-.1 6.3-.4 6.3-.7 0-1.3 57.6 0 68.5 1.5 1.7.3 5.9.7 9.5 1.1 3.6.4 7.6.9 9 1.1 1.4.3 4.1.8 6 1.1 3.5.5 14.7 2.6 20.5 3.7 6.7 1.4 13.4 3 20 4.9 7.8 2.2 7.8 2.2 12.3 3.2 1.8.4 3.5 1.2 3.8 1.6 1.4 2.3 3.3.4 4.8-4.9 1-3.1 2.2-6.7 2.8-7.9 1.2-2.4.7-7.2-1.3-11.8-.7-1.7-1.3-3.2-1.4-3.5-.1-.3-.6-2-1-3.8-.4-1.8-1.1-3.5-1.6-3.7-.4-.3-.4-1.8.1-3.3.5-1.5 2.1-6.8 3.6-11.7 1.4-5 3.9-13.1 5.5-18 5-16.2 5.1-16.5 2.6-17.5-2.1-1-3.2-1.6-8.7-5.1-1.4-.9-6.1-3.5-10.5-5.9-4.4-2.3-8.7-4.8-9.5-5.4-1.7-1.2-4.5-2.8-10.8-6.2-4.3-2.3-4.6-2.3-32.5-1.9-15.5.2-30.2.6-32.7.9-2.5.3-7 .8-10 1.1-11.7 1.3-19.1 2.4-20 3-2.4 1.5-1.3-2.2 3.4-11.6 9.8-19.4 18-46.7 20.1-66.4.1-1.1.5-4 .9-6.5 2-13.5 2.1-43.8.1-54-.3-1.4-.8-4.5-1.1-7-.3-2.5-.8-5.4-1.1-6.5-.2-1.1-.6-3.4-.9-5-.3-1.7-1.2-5.3-2-8.1s-1.6-6-1.8-7.1c-.2-1-1.1-3.6-2-5.6-.8-2.1-1.5-3.9-1.6-4.2-.7-4.9-9.8-24.6-18.4-40-11.5-20.5-32.7-44.8-54.1-61.8-3.3-2.7-6.8-5.5-7.8-6.3-.9-.8-1.9-1.4-2.2-1.4-.2 0-3.7-2.3-7.7-5-4-2.8-7.8-5-8.5-5-.7 0-1.3-.5-1.3-1 0-.6-.7-1-1.5-1s-1.5-.4-1.5-.9-1-1.2-2.2-1.6c-2.9-.9-2-.5-10.8-4.8-17.8-8.5-43.2-16.7-56.9-18.2-2-.3-5.2-.7-7.1-.9-10-1.4-41.3-2.9-42.3-2z"/></svg>